# xmcd
#
# Track frame offsets: 
#        150
#        22140
#        56190
#        77827
#        107592
#        135492
#        165867
#        188817
#        214299
#        244561
#        272461
#        299868
#
# Disc length: 4244 seconds
#
# Revision: 0
# Processed by: cddbd v1.5.2PL0 Copyright (c) Steve Scherf et al.
# Submitted via: ExactAudioCopyFreeDBPlugin 1.0
#
DISCID=ad10920c
DTITLE=Rade Serbedzija i Zapadni Kolodvor Band - Live 2013
DYEAR=2014
DGENRE=Pop
TTITLE0=Pjesma Za Bekima
TTITLE1=Do Posljednjeg Daha
TTITLE2=Na Vanjkuseku Glava
TTITLE3=I Thought (Mimi Solo)
TTITLE4=Tvoje NJezne Godine
TTITLE5=Gipsy Song
TTITLE6=Eleno Kerko Eleno
TTITLE7=Sama Na Sceni
TTITLE8=Prouletje Se Otpira
TTITLE9=Muzikanti
TTITLE10=Ne Daj Se Ines
TTITLE11=Tiho Noci
EXTD=
EXTT0=
EXTT1=
EXTT2=
EXTT3=
EXTT4=
EXTT5=
EXTT6=
EXTT7=
EXTT8=
EXTT9=
EXTT10=
EXTT11=
PLAYORDER=
